<svg width="680" height="441" viewBox="0 0 680 441" fill="none" xmlns="http://www.w3.org/2000/svg">
<rect x="28" y="2" width="403" height="50" fill="white"/>
<rect x="28" y="2" width="403" height="50" stroke="#9B9B9B" stroke-width="4"/>
<rect x="118" y="2" width="96" height="50" fill="#C3EAC3"/>
<rect x="118" y="2" width="96" height="50" stroke="#9B9B9B" stroke-width="4"/>
<path d="M128.852 31.1193C128.29 31.1193 127.788 31.0227 127.348 30.8295C126.911 30.6364 126.563 30.3679 126.304 30.0241C126.048 29.6776 125.909 29.2756 125.886 28.8182H126.96C126.983 29.0994 127.08 29.3423 127.25 29.5469C127.42 29.7486 127.643 29.9048 127.919 30.0156C128.195 30.1264 128.5 30.1818 128.835 30.1818C129.21 30.1818 129.543 30.1165 129.832 29.9858C130.122 29.8551 130.349 29.6733 130.514 29.4403C130.679 29.2074 130.761 28.9375 130.761 28.6307C130.761 28.3097 130.682 28.027 130.523 27.7827C130.364 27.5355 130.131 27.3423 129.824 27.2031C129.517 27.0639 129.142 26.9943 128.699 26.9943H128V26.0568H128.699C129.045 26.0568 129.349 25.9943 129.611 25.8693C129.875 25.7443 130.081 25.5682 130.229 25.3409C130.379 25.1136 130.455 24.8466 130.455 24.5398C130.455 24.2443 130.389 23.9872 130.259 23.7685C130.128 23.5497 129.943 23.3793 129.705 23.2571C129.469 23.1349 129.19 23.0739 128.869 23.0739C128.568 23.0739 128.284 23.1293 128.017 23.2401C127.753 23.348 127.537 23.5057 127.369 23.7131C127.202 23.9176 127.111 24.1648 127.097 24.4545H126.074C126.091 23.9972 126.229 23.5966 126.487 23.2528C126.746 22.9062 127.084 22.6364 127.501 22.4432C127.922 22.25 128.384 22.1534 128.886 22.1534C129.426 22.1534 129.889 22.2628 130.276 22.4815C130.662 22.6974 130.959 22.983 131.166 23.3381C131.374 23.6932 131.477 24.0767 131.477 24.4886C131.477 24.9801 131.348 25.3991 131.089 25.7457C130.834 26.0923 130.486 26.3324 130.045 26.4659V26.5341C130.597 26.625 131.027 26.8594 131.337 27.2372C131.646 27.6122 131.801 28.0767 131.801 28.6307C131.801 29.1051 131.672 29.5312 131.413 29.9091C131.158 30.2841 130.808 30.5795 130.365 30.7955C129.922 31.0114 129.418 31.1193 128.852 31.1193ZM133.544 31V30.233L136.425 27.0795C136.763 26.7102 137.041 26.3892 137.26 26.1165C137.479 25.8409 137.641 25.5824 137.746 25.3409C137.854 25.0966 137.908 24.8409 137.908 24.5739C137.908 24.267 137.834 24.0014 137.686 23.777C137.541 23.5526 137.342 23.3793 137.089 23.2571C136.837 23.1349 136.553 23.0739 136.237 23.0739C135.902 23.0739 135.609 23.1435 135.359 23.2827C135.112 23.419 134.92 23.6108 134.784 23.858C134.651 24.1051 134.584 24.3949 134.584 24.7273H133.578C133.578 24.2159 133.696 23.767 133.932 23.3807C134.168 22.9943 134.489 22.6932 134.895 22.4773C135.304 22.2614 135.763 22.1534 136.271 22.1534C136.783 22.1534 137.236 22.2614 137.631 22.4773C138.026 22.6932 138.335 22.9844 138.56 23.3509C138.784 23.7173 138.896 24.125 138.896 24.5739C138.896 24.8949 138.838 25.2088 138.722 25.5156C138.608 25.8196 138.409 26.1591 138.125 26.5341C137.844 26.9062 137.453 27.3608 136.953 27.8977L134.993 29.9943V30.0625H139.05V31H133.544ZM144.338 31V22.2727H147.389C147.997 22.2727 148.499 22.3778 148.893 22.5881C149.288 22.7955 149.582 23.0753 149.776 23.4276C149.969 23.777 150.065 24.1648 150.065 24.5909C150.065 24.9659 149.999 25.2756 149.865 25.5199C149.734 25.7642 149.561 25.9574 149.345 26.0994C149.132 26.2415 148.901 26.3466 148.651 26.4148V26.5C148.918 26.517 149.186 26.6108 149.456 26.7812C149.726 26.9517 149.952 27.196 150.134 27.5142C150.315 27.8324 150.406 28.2216 150.406 28.6818C150.406 29.1193 150.307 29.5128 150.108 29.8622C149.909 30.2116 149.595 30.4886 149.166 30.6932C148.737 30.8977 148.179 31 147.491 31H144.338ZM145.395 30.0625H147.491C148.182 30.0625 148.672 29.929 148.962 29.6619C149.254 29.392 149.401 29.0653 149.401 28.6818C149.401 28.3864 149.325 28.1136 149.175 27.8636C149.024 27.6108 148.81 27.4091 148.531 27.2585C148.253 27.1051 147.923 27.0284 147.543 27.0284H145.395V30.0625ZM145.395 26.108H147.355C147.673 26.108 147.96 26.0455 148.216 25.9205C148.474 25.7955 148.679 25.6193 148.83 25.392C148.983 25.1648 149.06 24.8977 149.06 24.5909C149.06 24.2074 148.926 23.8821 148.659 23.6151C148.392 23.3452 147.969 23.2102 147.389 23.2102H145.395V26.108ZM153.2 22.2727V31H152.143V22.2727H153.2ZM154.841 23.2102V22.2727H161.387V23.2102H158.642V31H157.586V23.2102H154.841ZM167.79 24.4545C167.739 24.0227 167.532 23.6875 167.168 23.4489C166.805 23.2102 166.359 23.0909 165.83 23.0909C165.444 23.0909 165.106 23.1534 164.816 23.2784C164.529 23.4034 164.305 23.5753 164.143 23.794C163.984 24.0128 163.904 24.2614 163.904 24.5398C163.904 24.7727 163.96 24.973 164.07 25.1406C164.184 25.3054 164.329 25.4432 164.505 25.554C164.681 25.6619 164.866 25.7514 165.059 25.8224C165.252 25.8906 165.43 25.946 165.592 25.9886L166.478 26.2273C166.705 26.2869 166.958 26.3693 167.237 26.4744C167.518 26.5795 167.786 26.723 168.042 26.9048C168.3 27.0838 168.513 27.3139 168.681 27.5952C168.849 27.8764 168.933 28.2216 168.933 28.6307C168.933 29.1023 168.809 29.5284 168.562 29.9091C168.317 30.2898 167.96 30.5923 167.488 30.8168C167.019 31.0412 166.45 31.1534 165.779 31.1534C165.154 31.1534 164.613 31.0526 164.156 30.8509C163.701 30.6491 163.343 30.3679 163.082 30.0071C162.823 29.6463 162.677 29.2273 162.643 28.75H163.734C163.762 29.0795 163.873 29.3523 164.066 29.5682C164.262 29.7812 164.509 29.9403 164.808 30.0455C165.109 30.1477 165.433 30.1989 165.779 30.1989C166.183 30.1989 166.545 30.1335 166.866 30.0028C167.187 29.8693 167.441 29.6847 167.629 29.4489C167.816 29.2102 167.91 28.9318 167.91 28.6136C167.91 28.3239 167.829 28.0881 167.667 27.9062C167.505 27.7244 167.292 27.5767 167.028 27.4631C166.763 27.3494 166.478 27.25 166.171 27.1648L165.097 26.858C164.415 26.6619 163.876 26.3821 163.478 26.0185C163.08 25.6548 162.881 25.179 162.881 24.5909C162.881 24.1023 163.013 23.6761 163.278 23.3125C163.545 22.946 163.903 22.6619 164.352 22.4602C164.803 22.2557 165.308 22.1534 165.864 22.1534C166.427 22.1534 166.927 22.2543 167.364 22.456C167.802 22.6548 168.148 22.9276 168.404 23.2741C168.663 23.6207 168.799 24.0142 168.813 24.4545H167.79ZM174.045 31V22.2727H175.102V26.1591H179.755V22.2727H180.812V31H179.755V27.0966H175.102V31H174.045ZM183.286 31H182.178L185.382 22.2727H186.473L189.678 31H188.57L185.962 23.6534H185.894L183.286 31ZM183.695 27.5909H188.161V28.5284H183.695V27.5909ZM195.81 24.4545C195.759 24.0227 195.551 23.6875 195.188 23.4489C194.824 23.2102 194.378 23.0909 193.85 23.0909C193.463 23.0909 193.125 23.1534 192.836 23.2784C192.549 23.4034 192.324 23.5753 192.162 23.794C192.003 24.0128 191.924 24.2614 191.924 24.5398C191.924 24.7727 191.979 24.973 192.09 25.1406C192.203 25.3054 192.348 25.4432 192.525 25.554C192.701 25.6619 192.885 25.7514 193.078 25.8224C193.272 25.8906 193.449 25.946 193.611 25.9886L194.498 26.2273C194.725 26.2869 194.978 26.3693 195.256 26.4744C195.537 26.5795 195.806 26.723 196.061 26.9048C196.32 27.0838 196.533 27.3139 196.701 27.5952C196.868 27.8764 196.952 28.2216 196.952 28.6307C196.952 29.1023 196.828 29.5284 196.581 29.9091C196.337 30.2898 195.979 30.5923 195.507 30.8168C195.039 31.0412 194.469 31.1534 193.799 31.1534C193.174 31.1534 192.632 31.0526 192.175 30.8509C191.721 30.6491 191.363 30.3679 191.101 30.0071C190.843 29.6463 190.696 29.2273 190.662 28.75H191.753C191.782 29.0795 191.892 29.3523 192.086 29.5682C192.282 29.7812 192.529 29.9403 192.827 30.0455C193.128 30.1477 193.452 30.1989 193.799 30.1989C194.202 30.1989 194.564 30.1335 194.885 30.0028C195.206 29.8693 195.461 29.6847 195.648 29.4489C195.836 29.2102 195.929 28.9318 195.929 28.6136C195.929 28.3239 195.848 28.0881 195.686 27.9062C195.525 27.7244 195.311 27.5767 195.047 27.4631C194.783 27.3494 194.498 27.25 194.191 27.1648L193.117 26.858C192.435 26.6619 191.895 26.3821 191.498 26.0185C191.1 25.6548 190.901 25.179 190.901 24.5909C190.901 24.1023 191.033 23.6761 191.297 23.3125C191.564 22.946 191.922 22.6619 192.371 22.4602C192.823 22.2557 193.327 22.1534 193.884 22.1534C194.446 22.1534 194.946 22.2543 195.384 22.456C195.821 22.6548 196.168 22.9276 196.424 23.2741C196.682 23.6207 196.819 24.0142 196.833 24.4545H195.81ZM198.69 31V22.2727H199.746V26.1591H204.4V22.2727H205.457V31H204.4V27.0966H199.746V31H198.69Z" fill="black"/>
<rect x="9" y="137" width="576" height="28" fill="white"/>
<rect x="9" y="137" width="576" height="28" stroke="#9B9B9B" stroke-width="4"/>
<rect width="119" height="32" transform="translate(7 135)" fill="#E0E7FF"/>
<path d="M20.648 155.12C20.072 155.12 19.576 155.024 19.16 154.832C18.752 154.64 18.436 154.364 18.212 154.004C17.988 153.644 17.872 153.216 17.864 152.72H18.944C18.944 153.16 19.092 153.508 19.388 153.764C19.692 154.02 20.112 154.148 20.648 154.148C21.152 154.148 21.544 154.024 21.824 153.776C22.112 153.528 22.256 153.184 22.256 152.744C22.256 152.392 22.16 152.084 21.968 151.82C21.784 151.556 21.516 151.372 21.164 151.268L19.976 150.896C19.376 150.712 18.912 150.404 18.584 149.972C18.264 149.54 18.104 149.032 18.104 148.448C18.104 147.976 18.208 147.568 18.416 147.224C18.632 146.872 18.932 146.6 19.316 146.408C19.7 146.208 20.152 146.108 20.672 146.108C21.44 146.108 22.056 146.324 22.52 146.756C22.984 147.18 23.22 147.748 23.228 148.46H22.148C22.148 148.028 22.016 147.692 21.752 147.452C21.496 147.204 21.132 147.08 20.66 147.08C20.196 147.08 19.832 147.192 19.568 147.416C19.312 147.64 19.184 147.952 19.184 148.352C19.184 148.712 19.28 149.024 19.472 149.288C19.664 149.552 19.94 149.74 20.3 149.852L21.5 150.236C22.084 150.42 22.536 150.732 22.856 151.172C23.176 151.612 23.336 152.128 23.336 152.72C23.336 153.2 23.224 153.62 23 153.98C22.776 154.34 22.46 154.62 22.052 154.82C21.652 155.02 21.184 155.12 20.648 155.12ZM27.2553 155V147.212H24.8553V146.228H30.7353V147.212H28.3353V155H27.2553ZM32.4946 155V146.24H35.2066C35.7266 146.24 36.1826 146.348 36.5746 146.564C36.9666 146.772 37.2706 147.064 37.4866 147.44C37.7026 147.816 37.8106 148.256 37.8106 148.76C37.8106 149.352 37.6546 149.86 37.3426 150.284C37.0386 150.708 36.6226 151 36.0946 151.16L37.9306 155H36.6586L34.9786 151.28H33.5746V155H32.4946ZM33.5746 150.308H35.2066C35.6546 150.308 36.0146 150.168 36.2866 149.888C36.5586 149.6 36.6946 149.224 36.6946 148.76C36.6946 148.288 36.5586 147.912 36.2866 147.632C36.0146 147.352 35.6546 147.212 35.2066 147.212H33.5746V150.308ZM39.9659 155V146.24H41.0459V154.016H45.0059V155H39.9659ZM46.9813 155V146.24H52.0213V147.224H48.0493V149.936H51.6013V150.908H48.0493V154.016H52.0213V155H46.9813ZM54.0566 155V146.24H55.4966L58.1726 153.74C58.1566 153.54 58.1366 153.296 58.1126 153.008C58.0966 152.712 58.0806 152.404 58.0646 152.084C58.0566 151.756 58.0526 151.448 58.0526 151.16V146.24H59.0966V155H57.6566L54.9926 147.5C55.0086 147.692 55.0246 147.936 55.0406 148.232C55.0566 148.52 55.0686 148.828 55.0766 149.156C55.0926 149.476 55.1006 149.784 55.1006 150.08V155H54.0566ZM68.4712 155V153.896L71.1472 151.052C71.6032 150.564 71.9352 150.132 72.1432 149.756C72.3512 149.372 72.4552 149.004 72.4552 148.652C72.4552 148.164 72.3192 147.78 72.0472 147.5C71.7832 147.22 71.4192 147.08 70.9552 147.08C70.4432 147.08 70.0392 147.224 69.7432 147.512C69.4552 147.8 69.3112 148.196 69.3112 148.7H68.2312C68.2472 148.172 68.3672 147.716 68.5912 147.332C68.8232 146.94 69.1392 146.64 69.5392 146.432C69.9472 146.224 70.4192 146.12 70.9552 146.12C71.4832 146.12 71.9392 146.224 72.3232 146.432C72.7152 146.632 73.0152 146.92 73.2232 147.296C73.4312 147.672 73.5352 148.12 73.5352 148.64C73.5352 149.136 73.4032 149.628 73.1392 150.116C72.8752 150.604 72.4432 151.16 71.8432 151.784L69.6832 154.016H73.6792V155H68.4712ZM82.8738 155V146.24H85.3578C86.1578 146.24 86.7818 146.44 87.2298 146.84C87.6858 147.24 87.9138 147.796 87.9138 148.508C87.9138 148.908 87.8298 149.256 87.6618 149.552C87.4938 149.848 87.2538 150.076 86.9418 150.236C86.6378 150.396 86.2698 150.472 85.8378 150.464V150.284C86.3018 150.276 86.7018 150.364 87.0378 150.548C87.3818 150.732 87.6458 150.996 87.8298 151.34C88.0218 151.684 88.1178 152.092 88.1178 152.564C88.1178 153.06 88.0138 153.492 87.8058 153.86C87.5978 154.228 87.3018 154.512 86.9178 154.712C86.5338 154.904 86.0738 155 85.5378 155H82.8738ZM83.9298 154.028H85.4178C85.9218 154.028 86.3178 153.896 86.6058 153.632C86.9018 153.36 87.0498 152.992 87.0498 152.528C87.0498 152.048 86.9018 151.66 86.6058 151.364C86.3178 151.06 85.9218 150.908 85.4178 150.908H83.9298V154.028ZM83.9298 149.972H85.3458C85.8098 149.972 86.1738 149.848 86.4378 149.6C86.7098 149.352 86.8458 149.016 86.8458 148.592C86.8458 148.168 86.7138 147.832 86.4498 147.584C86.1858 147.336 85.8218 147.212 85.3578 147.212H83.9298V149.972ZM92.0131 155V151.724L89.3731 146.24H90.4891L92.2291 149.84C92.3251 150.04 92.4011 150.212 92.4571 150.356C92.5131 150.492 92.5491 150.592 92.5651 150.656C92.5811 150.592 92.6171 150.492 92.6731 150.356C92.7371 150.212 92.8171 150.04 92.9131 149.84L94.6171 146.24H95.7331L93.0931 151.724V155H92.0131ZM99.2084 155V147.212H96.8084V146.228H102.688V147.212H100.288V155H99.2084ZM104.544 155V146.24H109.584V147.224H105.612V149.936H109.164V150.908H105.612V154.016H109.584V155H104.544ZM114.187 155.12C113.611 155.12 113.115 155.024 112.699 154.832C112.291 154.64 111.975 154.364 111.751 154.004C111.527 153.644 111.411 153.216 111.403 152.72H112.483C112.483 153.16 112.631 153.508 112.927 153.764C113.231 154.02 113.651 154.148 114.187 154.148C114.691 154.148 115.083 154.024 115.363 153.776C115.651 153.528 115.795 153.184 115.795 152.744C115.795 152.392 115.699 152.084 115.507 151.82C115.323 151.556 115.055 151.372 114.703 151.268L113.515 150.896C112.915 150.712 112.451 150.404 112.123 149.972C111.803 149.54 111.643 149.032 111.643 148.448C111.643 147.976 111.747 147.568 111.955 147.224C112.171 146.872 112.471 146.6 112.855 146.408C113.239 146.208 113.691 146.108 114.211 146.108C114.979 146.108 115.595 146.324 116.059 146.756C116.523 147.18 116.759 147.748 116.767 148.46H115.687C115.687 148.028 115.555 147.692 115.291 147.452C115.035 147.204 114.671 147.08 114.199 147.08C113.735 147.08 113.371 147.192 113.107 147.416C112.851 147.64 112.723 147.952 112.723 148.352C112.723 148.712 112.819 149.024 113.011 149.288C113.203 149.552 113.479 149.74 113.839 149.852L115.039 150.236C115.623 150.42 116.075 150.732 116.395 151.172C116.715 151.612 116.875 152.128 116.875 152.72C116.875 153.2 116.763 153.62 116.539 153.98C116.315 154.34 115.999 154.62 115.591 154.82C115.191 155.02 114.723 155.12 114.187 155.12Z" fill="black"/>
<rect x="296" y="137" width="120" height="28" fill="#F5D1CF"/>
<rect x="296" y="137" width="120" height="28" stroke="#9B9B9B" stroke-width="4"/>
<path d="M317.104 155V146.24H319.924C320.468 146.24 320.94 146.348 321.34 146.564C321.74 146.772 322.048 147.068 322.264 147.452C322.488 147.836 322.6 148.292 322.6 148.82C322.6 149.34 322.488 149.796 322.264 150.188C322.048 150.572 321.74 150.872 321.34 151.088C320.94 151.296 320.468 151.4 319.924 151.4H318.184V155H317.104ZM318.184 150.428H319.924C320.396 150.428 320.772 150.284 321.052 149.996C321.34 149.7 321.484 149.308 321.484 148.82C321.484 148.324 321.34 147.932 321.052 147.644C320.772 147.356 320.396 147.212 319.924 147.212H318.184V150.428ZM323.795 155L326.075 146.24H327.527L329.795 155H328.703L328.127 152.672H325.475L324.899 155H323.795ZM325.691 151.76H327.899L327.227 149.06C327.099 148.548 326.999 148.12 326.927 147.776C326.855 147.432 326.811 147.208 326.795 147.104C326.779 147.208 326.735 147.432 326.663 147.776C326.591 148.12 326.491 148.544 326.363 149.048L325.691 151.76ZM333.451 155V151.724L330.811 146.24H331.927L333.667 149.84C333.763 150.04 333.839 150.212 333.895 150.356C333.951 150.492 333.987 150.592 334.003 150.656C334.019 150.592 334.055 150.492 334.111 150.356C334.175 150.212 334.255 150.04 334.351 149.84L336.055 146.24H337.171L334.531 151.724V155H333.451ZM338.966 155V146.24H340.046V154.016H344.006V155H338.966ZM348.381 155.12C347.853 155.12 347.397 155.02 347.013 154.82C346.637 154.62 346.345 154.332 346.137 153.956C345.937 153.572 345.837 153.12 345.837 152.6V148.64C345.837 148.112 345.937 147.66 346.137 147.284C346.345 146.908 346.637 146.62 347.013 146.42C347.397 146.22 347.853 146.12 348.381 146.12C348.909 146.12 349.361 146.22 349.737 146.42C350.121 146.62 350.413 146.908 350.613 147.284C350.821 147.66 350.925 148.108 350.925 148.628V152.6C350.925 153.12 350.821 153.572 350.613 153.956C350.413 154.332 350.121 154.62 349.737 154.82C349.361 155.02 348.909 155.12 348.381 155.12ZM348.381 154.148C348.853 154.148 349.213 154.016 349.461 153.752C349.717 153.48 349.845 153.096 349.845 152.6V148.64C349.845 148.144 349.717 147.764 349.461 147.5C349.213 147.228 348.853 147.092 348.381 147.092C347.917 147.092 347.557 147.228 347.301 147.5C347.045 147.764 346.917 148.144 346.917 148.64V152.6C346.917 153.096 347.045 153.48 347.301 153.752C347.557 154.016 347.917 154.148 348.381 154.148ZM352.577 155L354.857 146.24H356.309L358.577 155H357.485L356.909 152.672H354.257L353.681 155H352.577ZM354.473 151.76H356.681L356.009 149.06C355.881 148.548 355.781 148.12 355.709 147.776C355.637 147.432 355.593 147.208 355.577 147.104C355.561 147.208 355.517 147.432 355.445 147.776C355.373 148.12 355.273 148.544 355.145 149.048L354.473 151.76ZM360.276 155V146.24H362.544C363.112 146.24 363.6 146.348 364.008 146.564C364.424 146.78 364.744 147.084 364.968 147.476C365.2 147.868 365.316 148.332 365.316 148.868V152.36C365.316 152.896 365.2 153.364 364.968 153.764C364.744 154.156 364.424 154.46 364.008 154.676C363.6 154.892 363.112 155 362.544 155H360.276ZM361.356 154.04H362.544C363.072 154.04 363.484 153.892 363.78 153.596C364.084 153.3 364.236 152.888 364.236 152.36V148.868C364.236 148.348 364.084 147.94 363.78 147.644C363.484 147.348 363.072 147.2 362.544 147.2H361.356V154.04ZM374.943 155V146.24H376.023V154.016H379.983V155H374.943ZM381.958 155V146.24H386.998V147.224H383.026V149.936H386.578V150.908H383.026V154.016H386.998V155H381.958ZM389.033 155V146.24H390.473L393.149 153.74C393.133 153.54 393.113 153.296 393.089 153.008C393.073 152.712 393.057 152.404 393.041 152.084C393.033 151.756 393.029 151.448 393.029 151.16V146.24H394.073V155H392.633L389.969 147.5C389.985 147.692 390.001 147.936 390.017 148.232C390.033 148.52 390.045 148.828 390.053 149.156C390.069 149.476 390.077 149.784 390.077 150.08V155H389.033Z" fill="black"/>
<rect x="460" y="137" width="78" height="28" fill="#E0E7FF"/>
<rect x="460" y="137" width="78" height="28" stroke="#9B9B9B" stroke-width="4"/>
<path d="M472.08 155V154.016H474.456V147.14L472.08 148.916V147.716L474.06 146.24H475.536V154.016H477.48V155H472.08ZM481.807 155.12C481.247 155.12 480.755 155.004 480.331 154.772C479.915 154.532 479.591 154.2 479.359 153.776C479.127 153.352 479.011 152.86 479.011 152.3C479.011 151.86 479.071 151.428 479.191 151.004C479.319 150.58 479.507 150.172 479.755 149.78L481.951 146.24H483.151L480.667 150.224L480.715 150.26C480.867 150.036 481.075 149.864 481.339 149.744C481.603 149.624 481.899 149.564 482.227 149.564C482.707 149.564 483.123 149.676 483.475 149.9C483.827 150.124 484.099 150.44 484.291 150.848C484.483 151.256 484.579 151.74 484.579 152.3C484.579 152.86 484.463 153.352 484.231 153.776C483.999 154.2 483.675 154.532 483.259 154.772C482.851 155.004 482.367 155.12 481.807 155.12ZM481.795 154.16C482.307 154.16 482.719 153.992 483.031 153.656C483.343 153.312 483.499 152.86 483.499 152.3C483.499 151.74 483.343 151.292 483.031 150.956C482.719 150.612 482.307 150.44 481.795 150.44C481.283 150.44 480.871 150.612 480.559 150.956C480.247 151.292 480.091 151.74 480.091 152.3C480.091 152.86 480.247 153.312 480.559 153.656C480.871 153.992 481.283 154.16 481.795 154.16ZM493.702 155V146.24H496.186C496.986 146.24 497.61 146.44 498.058 146.84C498.514 147.24 498.742 147.796 498.742 148.508C498.742 148.908 498.658 149.256 498.49 149.552C498.322 149.848 498.082 150.076 497.77 150.236C497.466 150.396 497.098 150.472 496.666 150.464V150.284C497.13 150.276 497.53 150.364 497.866 150.548C498.21 150.732 498.474 150.996 498.658 151.34C498.85 151.684 498.946 152.092 498.946 152.564C498.946 153.06 498.842 153.492 498.634 153.86C498.426 154.228 498.13 154.512 497.746 154.712C497.362 154.904 496.902 155 496.366 155H493.702ZM494.758 154.028H496.246C496.75 154.028 497.146 153.896 497.434 153.632C497.73 153.36 497.878 152.992 497.878 152.528C497.878 152.048 497.73 151.66 497.434 151.364C497.146 151.06 496.75 150.908 496.246 150.908H494.758V154.028ZM494.758 149.972H496.174C496.638 149.972 497.002 149.848 497.266 149.6C497.538 149.352 497.674 149.016 497.674 148.592C497.674 148.168 497.542 147.832 497.278 147.584C497.014 147.336 496.65 147.212 496.186 147.212H494.758V149.972ZM502.841 155V151.724L500.201 146.24H501.317L503.057 149.84C503.153 150.04 503.229 150.212 503.285 150.356C503.341 150.492 503.377 150.592 503.393 150.656C503.409 150.592 503.445 150.492 503.501 150.356C503.565 150.212 503.645 150.04 503.741 149.84L505.445 146.24H506.561L503.921 151.724V155H502.841ZM510.037 155V147.212H507.637V146.228H513.517V147.212H511.117V155H510.037ZM515.372 155V146.24H520.412V147.224H516.44V149.936H519.992V150.908H516.44V154.016H520.412V155H515.372ZM525.015 155.12C524.439 155.12 523.943 155.024 523.527 154.832C523.119 154.64 522.803 154.364 522.579 154.004C522.355 153.644 522.239 153.216 522.231 152.72H523.311C523.311 153.16 523.459 153.508 523.755 153.764C524.059 154.02 524.479 154.148 525.015 154.148C525.519 154.148 525.911 154.024 526.191 153.776C526.479 153.528 526.623 153.184 526.623 152.744C526.623 152.392 526.527 152.084 526.335 151.82C526.151 151.556 525.883 151.372 525.531 151.268L524.343 150.896C523.743 150.712 523.279 150.404 522.951 149.972C522.631 149.54 522.471 149.032 522.471 148.448C522.471 147.976 522.575 147.568 522.783 147.224C522.999 146.872 523.299 146.6 523.683 146.408C524.067 146.208 524.519 146.108 525.039 146.108C525.807 146.108 526.423 146.324 526.887 146.756C527.351 147.18 527.587 147.748 527.595 148.46H526.515C526.515 148.028 526.383 147.692 526.119 147.452C525.863 147.204 525.499 147.08 525.027 147.08C524.563 147.08 524.199 147.192 523.935 147.416C523.679 147.64 523.551 147.952 523.551 148.352C523.551 148.712 523.647 149.024 523.839 149.288C524.031 149.552 524.307 149.74 524.667 149.852L525.867 150.236C526.451 150.42 526.903 150.732 527.223 151.172C527.543 151.612 527.703 152.128 527.703 152.72C527.703 153.2 527.591 153.62 527.367 153.98C527.143 154.34 526.827 154.62 526.419 154.82C526.019 155.02 525.551 155.12 525.015 155.12Z" fill="black"/>
<rect x="128" y="137" width="167" height="28" fill="#FAE7BF"/>
<rect x="128" y="137" width="167" height="28" stroke="#9B9B9B" stroke-width="4"/>
<path d="M154.06 155V147.212H151.66V146.228H157.54V147.212H155.14V155H154.06ZM159.395 155V146.24H164.435V147.224H160.463V149.936H164.015V150.908H160.463V154.016H164.435V155H159.395ZM166.495 155V146.24H169.207C169.727 146.24 170.183 146.348 170.575 146.564C170.967 146.772 171.271 147.064 171.487 147.44C171.703 147.816 171.811 148.256 171.811 148.76C171.811 149.352 171.655 149.86 171.343 150.284C171.039 150.708 170.623 151 170.095 151.16L171.931 155H170.659L168.979 151.28H167.575V155H166.495ZM167.575 150.308H169.207C169.655 150.308 170.015 150.168 170.287 149.888C170.559 149.6 170.695 149.224 170.695 148.76C170.695 148.288 170.559 147.912 170.287 147.632C170.015 147.352 169.655 147.212 169.207 147.212H167.575V150.308ZM173.498 155V146.24H174.914L175.826 149.072C175.914 149.328 175.994 149.584 176.066 149.84C176.138 150.088 176.19 150.28 176.222 150.416C176.262 150.28 176.314 150.088 176.378 149.84C176.442 149.584 176.514 149.324 176.594 149.06L177.458 146.24H178.874V155H177.818V151.82C177.818 151.468 177.83 151.068 177.854 150.62C177.878 150.172 177.91 149.716 177.95 149.252C177.99 148.78 178.03 148.332 178.07 147.908C178.118 147.476 178.158 147.1 178.19 146.78L176.774 151.16H175.634L174.206 146.78C174.246 147.092 174.286 147.456 174.326 147.872C174.366 148.28 174.402 148.716 174.434 149.18C174.466 149.636 174.494 150.092 174.518 150.548C174.542 151.004 174.554 151.428 174.554 151.82V155H173.498ZM190.625 155.12C190.049 155.12 189.553 155.024 189.137 154.832C188.729 154.64 188.413 154.364 188.189 154.004C187.965 153.644 187.849 153.216 187.841 152.72H188.921C188.921 153.16 189.069 153.508 189.365 153.764C189.669 154.02 190.089 154.148 190.625 154.148C191.129 154.148 191.521 154.024 191.801 153.776C192.089 153.528 192.233 153.184 192.233 152.744C192.233 152.392 192.137 152.084 191.945 151.82C191.761 151.556 191.493 151.372 191.141 151.268L189.953 150.896C189.353 150.712 188.889 150.404 188.561 149.972C188.241 149.54 188.081 149.032 188.081 148.448C188.081 147.976 188.185 147.568 188.393 147.224C188.609 146.872 188.909 146.6 189.293 146.408C189.677 146.208 190.129 146.108 190.649 146.108C191.417 146.108 192.033 146.324 192.497 146.756C192.961 147.18 193.197 147.748 193.205 148.46H192.125C192.125 148.028 191.993 147.692 191.729 147.452C191.473 147.204 191.109 147.08 190.637 147.08C190.173 147.08 189.809 147.192 189.545 147.416C189.289 147.64 189.161 147.952 189.161 148.352C189.161 148.712 189.257 149.024 189.449 149.288C189.641 149.552 189.917 149.74 190.277 149.852L191.477 150.236C192.061 150.42 192.513 150.732 192.833 151.172C193.153 151.612 193.313 152.128 193.313 152.72C193.313 153.2 193.201 153.62 192.977 153.98C192.753 154.34 192.437 154.62 192.029 154.82C191.629 155.02 191.161 155.12 190.625 155.12ZM197.232 155V147.212H194.832V146.228H200.712V147.212H198.312V155H197.232ZM202.471 155V146.24H205.183C205.703 146.24 206.159 146.348 206.551 146.564C206.943 146.772 207.247 147.064 207.463 147.44C207.679 147.816 207.787 148.256 207.787 148.76C207.787 149.352 207.631 149.86 207.319 150.284C207.015 150.708 206.599 151 206.071 151.16L207.907 155H206.635L204.955 151.28H203.551V155H202.471ZM203.551 150.308H205.183C205.631 150.308 205.991 150.168 206.263 149.888C206.535 149.6 206.671 149.224 206.671 148.76C206.671 148.288 206.535 147.912 206.263 147.632C205.991 147.352 205.631 147.212 205.183 147.212H203.551V150.308ZM209.823 155V154.016H211.611V147.224H209.823V146.24H214.503V147.224H212.715V154.016H214.503V155H209.823ZM216.838 155V146.24H218.278L220.954 153.74C220.938 153.54 220.918 153.296 220.894 153.008C220.878 152.712 220.862 152.404 220.846 152.084C220.838 151.756 220.834 151.448 220.834 151.16V146.24H221.878V155H220.438L217.774 147.5C217.79 147.692 217.806 147.936 217.822 148.232C217.838 148.52 217.85 148.828 217.858 149.156C217.874 149.476 217.882 149.784 217.882 150.08V155H216.838ZM226.601 155.12C226.073 155.12 225.613 155.02 225.221 154.82C224.837 154.62 224.537 154.332 224.321 153.956C224.113 153.572 224.009 153.12 224.009 152.6V148.64C224.009 148.112 224.113 147.66 224.321 147.284C224.537 146.908 224.837 146.62 225.221 146.42C225.613 146.22 226.073 146.12 226.601 146.12C227.129 146.12 227.585 146.224 227.969 146.432C228.353 146.632 228.649 146.92 228.857 147.296C229.065 147.672 229.169 148.12 229.169 148.64H228.089C228.089 148.144 227.957 147.764 227.693 147.5C227.437 147.228 227.073 147.092 226.601 147.092C226.129 147.092 225.757 147.224 225.485 147.488C225.221 147.752 225.089 148.132 225.089 148.628V152.6C225.089 153.096 225.221 153.48 225.485 153.752C225.757 154.024 226.129 154.16 226.601 154.16C227.073 154.16 227.437 154.024 227.693 153.752C227.957 153.48 228.089 153.096 228.089 152.6V151.52H226.313V150.536H229.169V152.6C229.169 153.112 229.065 153.56 228.857 153.944C228.649 154.32 228.353 154.612 227.969 154.82C227.585 155.02 227.129 155.12 226.601 155.12ZM240.944 155.12C240.128 155.12 239.504 154.896 239.072 154.448C238.64 153.992 238.424 153.376 238.424 152.6V146.24H239.504V152.6C239.504 153.08 239.62 153.46 239.852 153.74C240.092 154.02 240.456 154.16 240.944 154.16C241.424 154.16 241.784 154.02 242.024 153.74C242.264 153.46 242.384 153.08 242.384 152.6V146.24H243.464V152.6C243.464 153.384 243.248 154 242.816 154.448C242.392 154.896 241.768 155.12 240.944 155.12ZM247.599 155V147.212H245.199V146.228H251.079V147.212H248.679V155H247.599ZM252.874 155V146.228H258.034V147.212H253.93V150.128H257.722V151.112H253.954V155H252.874ZM260.61 151.52V150.56H264.45V151.52H260.61ZM269.725 155.12C269.189 155.12 268.721 155.028 268.321 154.844C267.929 154.652 267.625 154.38 267.409 154.028C267.193 153.676 267.085 153.264 267.085 152.792C267.085 152.272 267.225 151.824 267.505 151.448C267.793 151.072 268.245 150.736 268.861 150.44L270.025 149.876C270.377 149.708 270.649 149.488 270.841 149.216C271.033 148.944 271.129 148.644 271.129 148.316C271.129 147.932 271.001 147.628 270.745 147.404C270.497 147.18 270.157 147.068 269.725 147.068C269.293 147.068 268.949 147.184 268.693 147.416C268.445 147.64 268.321 147.944 268.321 148.328C268.321 148.648 268.413 148.944 268.597 149.216C268.789 149.488 269.049 149.704 269.377 149.864L270.541 150.416C271.181 150.712 271.645 151.052 271.933 151.436C272.221 151.812 272.365 152.264 272.365 152.792C272.365 153.504 272.125 154.072 271.645 154.496C271.173 154.912 270.533 155.12 269.725 155.12ZM269.725 154.16C270.213 154.16 270.597 154.036 270.877 153.788C271.165 153.532 271.309 153.192 271.309 152.768C271.309 152.424 271.217 152.112 271.033 151.832C270.849 151.552 270.585 151.328 270.241 151.16L269.089 150.596C268.449 150.284 267.985 149.948 267.697 149.588C267.409 149.228 267.265 148.796 267.265 148.292C267.265 147.844 267.365 147.456 267.565 147.128C267.765 146.8 268.049 146.548 268.417 146.372C268.785 146.196 269.221 146.108 269.725 146.108C270.229 146.108 270.665 146.196 271.033 146.372C271.401 146.548 271.685 146.8 271.885 147.128C272.085 147.456 272.185 147.844 272.185 148.292C272.185 148.796 272.041 149.228 271.753 149.588C271.465 149.94 270.989 150.28 270.325 150.608L269.173 151.172C268.845 151.332 268.589 151.552 268.405 151.832C268.229 152.104 268.141 152.408 268.141 152.744C268.141 153.176 268.281 153.52 268.561 153.776C268.849 154.032 269.237 154.16 269.725 154.16Z" fill="black"/>
<rect x="169" y="211" width="149" height="28" fill="white"/>
<rect x="169" y="211" width="149" height="28" stroke="#9B9B9B" stroke-width="4"/>
<rect x="169" y="211" width="115" height="28" fill="#E0E7FF"/>
<rect x="169" y="211" width="115" height="28" stroke="#9B9B9B" stroke-width="4"/>
<path d="M201.468 229.12C200.94 229.12 200.476 229.016 200.076 228.808C199.684 228.592 199.38 228.296 199.164 227.92C198.948 227.544 198.84 227.104 198.84 226.6H199.92C199.92 227.088 200.056 227.472 200.328 227.752C200.608 228.024 200.992 228.16 201.48 228.16C201.976 228.16 202.36 228.016 202.632 227.728C202.904 227.44 203.04 227.064 203.04 226.6V225.976C203.04 225.48 202.904 225.096 202.632 224.824C202.36 224.552 201.976 224.416 201.48 224.416H200.58V223.336L202.752 221.224H199.2V220.24H203.844V221.32L201.504 223.588V223.456C202.304 223.456 202.94 223.684 203.412 224.14C203.884 224.596 204.12 225.208 204.12 225.976V226.6C204.12 227.104 204.008 227.544 203.784 227.92C203.568 228.296 203.26 228.592 202.86 228.808C202.46 229.016 201.996 229.12 201.468 229.12ZM206.299 229V227.896L208.975 225.052C209.431 224.564 209.763 224.132 209.971 223.756C210.179 223.372 210.283 223.004 210.283 222.652C210.283 222.164 210.147 221.78 209.875 221.5C209.611 221.22 209.247 221.08 208.783 221.08C208.271 221.08 207.867 221.224 207.571 221.512C207.283 221.8 207.139 222.196 207.139 222.7H206.059C206.075 222.172 206.195 221.716 206.419 221.332C206.651 220.94 206.967 220.64 207.367 220.432C207.775 220.224 208.247 220.12 208.783 220.12C209.311 220.12 209.767 220.224 210.151 220.432C210.543 220.632 210.843 220.92 211.051 221.296C211.259 221.672 211.363 222.12 211.363 222.64C211.363 223.136 211.231 223.628 210.967 224.116C210.703 224.604 210.271 225.16 209.671 225.784L207.511 228.016H211.507V229H206.299ZM220.702 229V220.24H223.186C223.986 220.24 224.61 220.44 225.058 220.84C225.514 221.24 225.742 221.796 225.742 222.508C225.742 222.908 225.658 223.256 225.49 223.552C225.322 223.848 225.082 224.076 224.77 224.236C224.466 224.396 224.098 224.472 223.666 224.464V224.284C224.13 224.276 224.53 224.364 224.866 224.548C225.21 224.732 225.474 224.996 225.658 225.34C225.85 225.684 225.946 226.092 225.946 226.564C225.946 227.06 225.842 227.492 225.634 227.86C225.426 228.228 225.13 228.512 224.746 228.712C224.362 228.904 223.902 229 223.366 229H220.702ZM221.758 228.028H223.246C223.75 228.028 224.146 227.896 224.434 227.632C224.73 227.36 224.878 226.992 224.878 226.528C224.878 226.048 224.73 225.66 224.434 225.364C224.146 225.06 223.75 224.908 223.246 224.908H221.758V228.028ZM221.758 223.972H223.174C223.638 223.972 224.002 223.848 224.266 223.6C224.538 223.352 224.674 223.016 224.674 222.592C224.674 222.168 224.542 221.832 224.278 221.584C224.014 221.336 223.65 221.212 223.186 221.212H221.758V223.972ZM229.841 229V225.724L227.201 220.24H228.317L230.057 223.84C230.153 224.04 230.229 224.212 230.285 224.356C230.341 224.492 230.377 224.592 230.393 224.656C230.409 224.592 230.445 224.492 230.501 224.356C230.565 224.212 230.645 224.04 230.741 223.84L232.445 220.24H233.561L230.921 225.724V229H229.841ZM237.037 229V221.212H234.637V220.228H240.517V221.212H238.117V229H237.037ZM242.372 229V220.24H247.412V221.224H243.44V223.936H246.992V224.908H243.44V228.016H247.412V229H242.372ZM252.015 229.12C251.439 229.12 250.943 229.024 250.527 228.832C250.119 228.64 249.803 228.364 249.579 228.004C249.355 227.644 249.239 227.216 249.231 226.72H250.311C250.311 227.16 250.459 227.508 250.755 227.764C251.059 228.02 251.479 228.148 252.015 228.148C252.519 228.148 252.911 228.024 253.191 227.776C253.479 227.528 253.623 227.184 253.623 226.744C253.623 226.392 253.527 226.084 253.335 225.82C253.151 225.556 252.883 225.372 252.531 225.268L251.343 224.896C250.743 224.712 250.279 224.404 249.951 223.972C249.631 223.54 249.471 223.032 249.471 222.448C249.471 221.976 249.575 221.568 249.783 221.224C249.999 220.872 250.299 220.6 250.683 220.408C251.067 220.208 251.519 220.108 252.039 220.108C252.807 220.108 253.423 220.324 253.887 220.756C254.351 221.18 254.587 221.748 254.595 222.46H253.515C253.515 222.028 253.383 221.692 253.119 221.452C252.863 221.204 252.499 221.08 252.027 221.08C251.563 221.08 251.199 221.192 250.935 221.416C250.679 221.64 250.551 221.952 250.551 222.352C250.551 222.712 250.647 223.024 250.839 223.288C251.031 223.552 251.307 223.74 251.667 223.852L252.867 224.236C253.451 224.42 253.903 224.732 254.223 225.172C254.543 225.612 254.703 226.128 254.703 226.72C254.703 227.2 254.591 227.62 254.367 227.98C254.143 228.34 253.827 228.62 253.419 228.82C253.019 229.02 252.551 229.12 252.015 229.12Z" fill="black"/>
<rect x="299" y="296" width="301" height="28" fill="white"/>
<rect x="299" y="296" width="301" height="28" stroke="#9B9B9B" stroke-width="4"/>
<rect x="299" y="296" width="260" height="28" fill="#E0E7FF"/>
<rect x="299" y="296" width="260" height="28" stroke="#9B9B9B" stroke-width="4"/>
<path d="M403.612 314.12C403.052 314.12 402.56 314.004 402.136 313.772C401.72 313.532 401.396 313.2 401.164 312.776C400.932 312.352 400.816 311.86 400.816 311.3C400.816 310.86 400.876 310.428 400.996 310.004C401.124 309.58 401.312 309.172 401.56 308.78L403.756 305.24H404.956L402.472 309.224L402.52 309.26C402.672 309.036 402.88 308.864 403.144 308.744C403.408 308.624 403.704 308.564 404.032 308.564C404.512 308.564 404.928 308.676 405.28 308.9C405.632 309.124 405.904 309.44 406.096 309.848C406.288 310.256 406.384 310.74 406.384 311.3C406.384 311.86 406.268 312.352 406.036 312.776C405.804 313.2 405.48 313.532 405.064 313.772C404.656 314.004 404.172 314.12 403.612 314.12ZM403.6 313.16C404.112 313.16 404.524 312.992 404.836 312.656C405.148 312.312 405.304 311.86 405.304 311.3C405.304 310.74 405.148 310.292 404.836 309.956C404.524 309.612 404.112 309.44 403.6 309.44C403.088 309.44 402.676 309.612 402.364 309.956C402.052 310.292 401.896 310.74 401.896 311.3C401.896 311.86 402.052 312.312 402.364 312.656C402.676 312.992 403.088 313.16 403.6 313.16ZM412.115 314V312.08H408.155V310.388L411.623 305.24H412.799L409.235 310.616V311.096H412.115V308.96H413.195V314H412.115ZM422.702 314V305.24H425.186C425.986 305.24 426.61 305.44 427.058 305.84C427.514 306.24 427.742 306.796 427.742 307.508C427.742 307.908 427.658 308.256 427.49 308.552C427.322 308.848 427.082 309.076 426.77 309.236C426.466 309.396 426.098 309.472 425.666 309.464V309.284C426.13 309.276 426.53 309.364 426.866 309.548C427.21 309.732 427.474 309.996 427.658 310.34C427.85 310.684 427.946 311.092 427.946 311.564C427.946 312.06 427.842 312.492 427.634 312.86C427.426 313.228 427.13 313.512 426.746 313.712C426.362 313.904 425.902 314 425.366 314H422.702ZM423.758 313.028H425.246C425.75 313.028 426.146 312.896 426.434 312.632C426.73 312.36 426.878 311.992 426.878 311.528C426.878 311.048 426.73 310.66 426.434 310.364C426.146 310.06 425.75 309.908 425.246 309.908H423.758V313.028ZM423.758 308.972H425.174C425.638 308.972 426.002 308.848 426.266 308.6C426.538 308.352 426.674 308.016 426.674 307.592C426.674 307.168 426.542 306.832 426.278 306.584C426.014 306.336 425.65 306.212 425.186 306.212H423.758V308.972ZM431.841 314V310.724L429.201 305.24H430.317L432.057 308.84C432.153 309.04 432.229 309.212 432.285 309.356C432.341 309.492 432.377 309.592 432.393 309.656C432.409 309.592 432.445 309.492 432.501 309.356C432.565 309.212 432.645 309.04 432.741 308.84L434.445 305.24H435.561L432.921 310.724V314H431.841ZM439.037 314V306.212H436.637V305.228H442.517V306.212H440.117V314H439.037ZM444.372 314V305.24H449.412V306.224H445.44V308.936H448.992V309.908H445.44V313.016H449.412V314H444.372ZM454.015 314.12C453.439 314.12 452.943 314.024 452.527 313.832C452.119 313.64 451.803 313.364 451.579 313.004C451.355 312.644 451.239 312.216 451.231 311.72H452.311C452.311 312.16 452.459 312.508 452.755 312.764C453.059 313.02 453.479 313.148 454.015 313.148C454.519 313.148 454.911 313.024 455.191 312.776C455.479 312.528 455.623 312.184 455.623 311.744C455.623 311.392 455.527 311.084 455.335 310.82C455.151 310.556 454.883 310.372 454.531 310.268L453.343 309.896C452.743 309.712 452.279 309.404 451.951 308.972C451.631 308.54 451.471 308.032 451.471 307.448C451.471 306.976 451.575 306.568 451.783 306.224C451.999 305.872 452.299 305.6 452.683 305.408C453.067 305.208 453.519 305.108 454.039 305.108C454.807 305.108 455.423 305.324 455.887 305.756C456.351 306.18 456.587 306.748 456.595 307.46H455.515C455.515 307.028 455.383 306.692 455.119 306.452C454.863 306.204 454.499 306.08 454.027 306.08C453.563 306.08 453.199 306.192 452.935 306.416C452.679 306.64 452.551 306.952 452.551 307.352C452.551 307.712 452.647 308.024 452.839 308.288C453.031 308.552 453.307 308.74 453.667 308.852L454.867 309.236C455.451 309.42 455.903 309.732 456.223 310.172C456.543 310.612 456.703 311.128 456.703 311.72C456.703 312.2 456.591 312.62 456.367 312.98C456.143 313.34 455.827 313.62 455.419 313.82C455.019 314.02 454.551 314.12 454.015 314.12Z" fill="black"/>
<g clip-path="url(#clip0_1_58)">
<rect x="105" y="379" width="512" height="32" fill="white"/>
<rect x="107" y="381" width="305" height="28" fill="#E0E7FF"/>
<rect x="107" y="381" width="305" height="28" stroke="#9B9B9B" stroke-width="4"/>
<path d="M234.468 399.12C233.94 399.12 233.476 399.016 233.076 398.808C232.684 398.592 232.38 398.296 232.164 397.92C231.948 397.544 231.84 397.104 231.84 396.6H232.92C232.92 397.088 233.056 397.472 233.328 397.752C233.608 398.024 233.992 398.16 234.48 398.16C234.976 398.16 235.36 398.016 235.632 397.728C235.904 397.44 236.04 397.064 236.04 396.6V395.976C236.04 395.48 235.904 395.096 235.632 394.824C235.36 394.552 234.976 394.416 234.48 394.416H233.58V393.336L235.752 391.224H232.2V390.24H236.844V391.32L234.504 393.588V393.456C235.304 393.456 235.94 393.684 236.412 394.14C236.884 394.596 237.12 395.208 237.12 395.976V396.6C237.12 397.104 237.008 397.544 236.784 397.92C236.568 398.296 236.26 398.592 235.86 398.808C235.46 399.016 234.996 399.12 234.468 399.12ZM239.299 399V397.896L241.975 395.052C242.431 394.564 242.763 394.132 242.971 393.756C243.179 393.372 243.283 393.004 243.283 392.652C243.283 392.164 243.147 391.78 242.875 391.5C242.611 391.22 242.247 391.08 241.783 391.08C241.271 391.08 240.867 391.224 240.571 391.512C240.283 391.8 240.139 392.196 240.139 392.7H239.059C239.075 392.172 239.195 391.716 239.419 391.332C239.651 390.94 239.967 390.64 240.367 390.432C240.775 390.224 241.247 390.12 241.783 390.12C242.311 390.12 242.767 390.224 243.151 390.432C243.543 390.632 243.843 390.92 244.051 391.296C244.259 391.672 244.363 392.12 244.363 392.64C244.363 393.136 244.231 393.628 243.967 394.116C243.703 394.604 243.271 395.16 242.671 395.784L240.511 398.016H244.507V399H239.299ZM253.702 399V390.24H256.186C256.986 390.24 257.61 390.44 258.058 390.84C258.514 391.24 258.742 391.796 258.742 392.508C258.742 392.908 258.658 393.256 258.49 393.552C258.322 393.848 258.082 394.076 257.77 394.236C257.466 394.396 257.098 394.472 256.666 394.464V394.284C257.13 394.276 257.53 394.364 257.866 394.548C258.21 394.732 258.474 394.996 258.658 395.34C258.85 395.684 258.946 396.092 258.946 396.564C258.946 397.06 258.842 397.492 258.634 397.86C258.426 398.228 258.13 398.512 257.746 398.712C257.362 398.904 256.902 399 256.366 399H253.702ZM254.758 398.028H256.246C256.75 398.028 257.146 397.896 257.434 397.632C257.73 397.36 257.878 396.992 257.878 396.528C257.878 396.048 257.73 395.66 257.434 395.364C257.146 395.06 256.75 394.908 256.246 394.908H254.758V398.028ZM254.758 393.972H256.174C256.638 393.972 257.002 393.848 257.266 393.6C257.538 393.352 257.674 393.016 257.674 392.592C257.674 392.168 257.542 391.832 257.278 391.584C257.014 391.336 256.65 391.212 256.186 391.212H254.758V393.972ZM262.841 399V395.724L260.201 390.24H261.317L263.057 393.84C263.153 394.04 263.229 394.212 263.285 394.356C263.341 394.492 263.377 394.592 263.393 394.656C263.409 394.592 263.445 394.492 263.501 394.356C263.565 394.212 263.645 394.04 263.741 393.84L265.445 390.24H266.561L263.921 395.724V399H262.841ZM270.037 399V391.212H267.637V390.228H273.517V391.212H271.117V399H270.037ZM275.372 399V390.24H280.412V391.224H276.44V393.936H279.992V394.908H276.44V398.016H280.412V399H275.372ZM285.015 399.12C284.439 399.12 283.943 399.024 283.527 398.832C283.119 398.64 282.803 398.364 282.579 398.004C282.355 397.644 282.239 397.216 282.231 396.72H283.311C283.311 397.16 283.459 397.508 283.755 397.764C284.059 398.02 284.479 398.148 285.015 398.148C285.519 398.148 285.911 398.024 286.191 397.776C286.479 397.528 286.623 397.184 286.623 396.744C286.623 396.392 286.527 396.084 286.335 395.82C286.151 395.556 285.883 395.372 285.531 395.268L284.343 394.896C283.743 394.712 283.279 394.404 282.951 393.972C282.631 393.54 282.471 393.032 282.471 392.448C282.471 391.976 282.575 391.568 282.783 391.224C282.999 390.872 283.299 390.6 283.683 390.408C284.067 390.208 284.519 390.108 285.039 390.108C285.807 390.108 286.423 390.324 286.887 390.756C287.351 391.18 287.587 391.748 287.595 392.46H286.515C286.515 392.028 286.383 391.692 286.119 391.452C285.863 391.204 285.499 391.08 285.027 391.08C284.563 391.08 284.199 391.192 283.935 391.416C283.679 391.64 283.551 391.952 283.551 392.352C283.551 392.712 283.647 393.024 283.839 393.288C284.031 393.552 284.307 393.74 284.667 393.852L285.867 394.236C286.451 394.42 286.903 394.732 287.223 395.172C287.543 395.612 287.703 396.128 287.703 396.72C287.703 397.2 287.591 397.62 287.367 397.98C287.143 398.34 286.827 398.62 286.419 398.82C286.019 399.02 285.551 399.12 285.015 399.12Z" fill="black"/>
<path d="M462.6 400L464.88 391.24H466.332L468.6 400H467.508L466.932 397.672H464.28L463.704 400H462.6ZM464.496 396.76H466.704L466.032 394.06C465.904 393.548 465.804 393.12 465.732 392.776C465.66 392.432 465.616 392.208 465.6 392.104C465.584 392.208 465.54 392.432 465.468 392.776C465.396 393.12 465.296 393.544 465.168 394.048L464.496 396.76ZM472.051 400L469.795 391.24H470.911L472.399 397.192C472.503 397.608 472.591 397.996 472.663 398.356C472.735 398.708 472.787 398.976 472.819 399.16C472.851 398.976 472.899 398.708 472.963 398.356C473.035 397.996 473.123 397.608 473.227 397.192L474.703 391.24H475.795L473.527 400H472.051ZM476.991 400L479.271 391.24H480.723L482.991 400H481.899L481.323 397.672H478.671L478.095 400H476.991ZM478.887 396.76H481.095L480.423 394.06C480.295 393.548 480.195 393.12 480.123 392.776C480.051 392.432 480.007 392.208 479.991 392.104C479.975 392.208 479.931 392.432 479.859 392.776C479.787 393.12 479.687 393.544 479.559 394.048L478.887 396.76ZM484.846 400V399.016H486.634V392.224H484.846V391.24H489.526V392.224H487.738V399.016H489.526V400H484.846ZM492.161 400V391.24H493.241V399.016H497.201V400H492.161ZM498.577 400L500.857 391.24H502.309L504.577 400H503.485L502.909 397.672H500.257L499.681 400H498.577ZM500.473 396.76H502.681L502.009 394.06C501.881 393.548 501.781 393.12 501.709 392.776C501.637 392.432 501.593 392.208 501.577 392.104C501.561 392.208 501.517 392.432 501.445 392.776C501.373 393.12 501.273 393.544 501.145 394.048L500.473 396.76ZM506.288 400V391.24H508.772C509.572 391.24 510.196 391.44 510.644 391.84C511.1 392.24 511.328 392.796 511.328 393.508C511.328 393.908 511.244 394.256 511.076 394.552C510.908 394.848 510.668 395.076 510.356 395.236C510.052 395.396 509.684 395.472 509.252 395.464V395.284C509.716 395.276 510.116 395.364 510.452 395.548C510.796 395.732 511.06 395.996 511.244 396.34C511.436 396.684 511.532 397.092 511.532 397.564C511.532 398.06 511.428 398.492 511.22 398.86C511.012 399.228 510.716 399.512 510.332 399.712C509.948 399.904 509.488 400 508.952 400H506.288ZM507.344 399.028H508.832C509.336 399.028 509.732 398.896 510.02 398.632C510.316 398.36 510.464 397.992 510.464 397.528C510.464 397.048 510.316 396.66 510.02 396.364C509.732 396.06 509.336 395.908 508.832 395.908H507.344V399.028ZM507.344 394.972H508.76C509.224 394.972 509.588 394.848 509.852 394.6C510.124 394.352 510.26 394.016 510.26 393.592C510.26 393.168 510.128 392.832 509.864 392.584C509.6 392.336 509.236 392.212 508.772 392.212H507.344V394.972ZM513.747 400V391.24H514.827V399.016H518.787V400H513.747ZM520.763 400V391.24H525.803V392.224H521.831V394.936H525.383V395.908H521.831V399.016H525.803V400H520.763ZM537.601 400.12C537.025 400.12 536.529 400.024 536.113 399.832C535.705 399.64 535.389 399.364 535.165 399.004C534.941 398.644 534.825 398.216 534.817 397.72H535.897C535.897 398.16 536.045 398.508 536.341 398.764C536.645 399.02 537.065 399.148 537.601 399.148C538.105 399.148 538.497 399.024 538.777 398.776C539.065 398.528 539.209 398.184 539.209 397.744C539.209 397.392 539.113 397.084 538.921 396.82C538.737 396.556 538.469 396.372 538.117 396.268L536.929 395.896C536.329 395.712 535.865 395.404 535.537 394.972C535.217 394.54 535.057 394.032 535.057 393.448C535.057 392.976 535.161 392.568 535.369 392.224C535.585 391.872 535.885 391.6 536.269 391.408C536.653 391.208 537.105 391.108 537.625 391.108C538.393 391.108 539.009 391.324 539.473 391.756C539.937 392.18 540.173 392.748 540.181 393.46H539.101C539.101 393.028 538.969 392.692 538.705 392.452C538.449 392.204 538.085 392.08 537.613 392.08C537.149 392.08 536.785 392.192 536.521 392.416C536.265 392.64 536.137 392.952 536.137 393.352C536.137 393.712 536.233 394.024 536.425 394.288C536.617 394.552 536.893 394.74 537.253 394.852L538.453 395.236C539.037 395.42 539.489 395.732 539.809 396.172C540.129 396.612 540.289 397.128 540.289 397.72C540.289 398.2 540.177 398.62 539.953 398.98C539.729 399.34 539.413 399.62 539.005 399.82C538.605 400.02 538.137 400.12 537.601 400.12ZM542.252 400V391.24H545.072C545.616 391.24 546.088 391.348 546.488 391.564C546.888 391.772 547.196 392.068 547.412 392.452C547.636 392.836 547.748 393.292 547.748 393.82C547.748 394.34 547.636 394.796 547.412 395.188C547.196 395.572 546.888 395.872 546.488 396.088C546.088 396.296 545.616 396.4 545.072 396.4H543.332V400H542.252ZM543.332 395.428H545.072C545.544 395.428 545.92 395.284 546.2 394.996C546.488 394.7 546.632 394.308 546.632 393.82C546.632 393.324 546.488 392.932 546.2 392.644C545.92 392.356 545.544 392.212 545.072 392.212H543.332V395.428ZM548.944 400L551.224 391.24H552.676L554.944 400H553.852L553.276 397.672H550.624L550.048 400H548.944ZM550.84 396.76H553.048L552.376 394.06C552.248 393.548 552.148 393.12 552.076 392.776C552.004 392.432 551.96 392.208 551.944 392.104C551.928 392.208 551.884 392.432 551.812 392.776C551.74 393.12 551.64 393.544 551.512 394.048L550.84 396.76ZM559.187 400.12C558.659 400.12 558.199 400.02 557.807 399.82C557.423 399.62 557.123 399.332 556.907 398.956C556.699 398.572 556.595 398.12 556.595 397.6V393.64C556.595 393.112 556.699 392.66 556.907 392.284C557.123 391.908 557.423 391.62 557.807 391.42C558.199 391.22 558.659 391.12 559.187 391.12C559.715 391.12 560.171 391.224 560.555 391.432C560.939 391.632 561.235 391.92 561.443 392.296C561.651 392.672 561.755 393.12 561.755 393.64H560.675C560.675 393.144 560.543 392.764 560.279 392.5C560.023 392.228 559.659 392.092 559.187 392.092C558.715 392.092 558.343 392.224 558.071 392.488C557.807 392.752 557.675 393.132 557.675 393.628V397.6C557.675 398.096 557.807 398.48 558.071 398.752C558.343 399.016 558.715 399.148 559.187 399.148C559.659 399.148 560.023 399.016 560.279 398.752C560.543 398.48 560.675 398.096 560.675 397.6H561.755C561.755 398.112 561.651 398.56 561.443 398.944C561.235 399.32 560.939 399.612 560.555 399.82C560.171 400.02 559.715 400.12 559.187 400.12ZM563.934 400V391.24H568.974V392.224H565.002V394.936H568.554V395.908H565.002V399.016H568.974V400H563.934Z" fill="black"/>
</g>
<rect x="107" y="381" width="508" height="28" stroke="#9B9B9B" stroke-width="4"/>
<path d="M264.167 21.5C264.167 24.4455 266.554 26.8333 269.5 26.8333C272.446 26.8333 274.833 24.4455 274.833 21.5C274.833 18.5545 272.446 16.1667 269.5 16.1667C266.554 16.1667 264.167 18.5545 264.167 21.5ZM8.6552 135.416C9.12809 135.701 9.74272 135.549 10.028 135.076L14.6771 127.37C14.9624 126.897 14.8103 126.283 14.3374 125.997C13.8645 125.712 13.2499 125.864 12.9646 126.337L8.83207 133.187L1.98207 129.055C1.50918 128.769 0.894549 128.921 0.60926 129.394C0.323971 129.867 0.476054 130.482 0.948948 130.767L8.6552 135.416ZM556.667 151.998C556.667 154.944 559.055 157.332 562 157.332C564.946 157.332 567.333 154.944 567.333 151.998C567.333 149.053 564.946 146.665 562 146.665C559.055 146.665 556.667 149.053 556.667 151.998ZM165.793 229.727C166.345 229.711 166.78 229.251 166.764 228.699L166.511 219.703C166.496 219.15 166.036 218.716 165.484 218.731C164.932 218.747 164.497 219.207 164.512 219.759L164.737 227.756L156.74 227.98C156.188 227.996 155.753 228.456 155.769 229.008C155.784 229.56 156.244 229.995 156.796 229.98L165.793 229.727ZM295.167 228.727C295.167 231.673 297.554 234.06 300.5 234.06C303.446 234.06 305.833 231.673 305.833 228.727C305.833 225.782 303.446 223.394 300.5 223.394C297.554 223.394 295.167 225.782 295.167 228.727ZM300.492 312C301.044 312.004 301.495 311.56 301.5 311.008L301.573 302.008C301.578 301.456 301.134 301.005 300.581 301C300.029 300.996 299.578 301.44 299.573 301.992L299.508 309.992L291.508 309.927C290.956 309.922 290.505 310.366 290.5 310.919C290.496 311.471 290.94 311.922 291.492 311.927L300.492 312ZM571.667 311C571.667 313.945 574.054 316.333 577 316.333C579.946 316.333 582.333 313.945 582.333 311C582.333 308.054 579.946 305.667 577 305.667C574.054 305.667 571.667 308.054 571.667 311ZM105.528 396C106.08 395.984 106.515 395.524 106.5 394.972L106.247 385.975C106.231 385.423 105.771 384.988 105.219 385.004C104.667 385.019 104.232 385.48 104.247 386.032L104.472 394.028L96.4754 394.253C95.9234 394.269 95.4884 394.729 95.5039 395.281C95.5194 395.833 95.9796 396.268 96.5316 396.253L105.528 396ZM432.167 152C432.167 154.946 434.554 157.333 437.5 157.333C440.446 157.333 442.833 154.946 442.833 152C442.833 149.054 440.446 146.667 437.5 146.667C434.554 146.667 432.167 149.054 432.167 152ZM268.535 21.7625C274.446 43.488 274.261 59.2783 269.664 70.6121C265.088 81.8973 256.066 88.9352 243.88 93.0234C231.663 97.1221 216.327 98.2302 199.292 97.6527C182.269 97.0756 163.633 94.8194 144.845 92.2406C126.076 89.6643 107.14 86.7637 89.593 84.9157C72.0495 83.0681 55.8094 82.2621 42.4122 83.8978C29.0362 85.5309 18.2929 89.6223 11.9914 97.761C5.66806 105.928 4.01927 117.9 8.20104 134.8L10.1425 134.32C6.03131 117.705 7.78245 106.464 13.5728 98.9854C19.3849 91.4788 29.4688 87.493 42.6546 85.8831C55.8192 84.2757 71.8754 85.0608 89.3835 86.9047C106.888 88.7483 125.759 91.6396 144.573 94.222C163.368 96.8017 182.091 99.0707 199.224 99.6516C216.346 100.232 231.963 99.131 244.516 94.9195C257.101 90.6975 266.667 83.3243 271.518 71.3637C276.349 59.4516 276.429 43.1612 270.465 21.2375L268.535 21.7625ZM561 151.998C561 168.597 553.04 180.351 539.213 188.521C525.319 196.729 505.517 201.297 481.991 203.348C434.954 207.449 373.518 201.453 315.966 194.974C287.211 191.737 259.426 188.379 234.945 186.113C210.474 183.847 189.233 182.664 173.573 183.791C165.747 184.355 159.243 185.499 154.404 187.414C149.571 189.326 146.227 192.08 145.061 195.96C143.902 199.816 144.996 204.46 148.249 209.92C151.513 215.397 157.044 221.86 165.078 229.454L166.452 228C158.475 220.46 153.094 214.144 149.967 208.896C146.83 203.63 146.055 199.601 146.976 196.536C147.89 193.495 150.573 191.08 155.14 189.273C159.701 187.469 165.97 186.344 173.716 185.786C189.199 184.671 210.296 185.839 234.76 188.104C259.215 190.369 286.963 193.722 315.742 196.962C373.258 203.437 434.895 209.461 482.164 205.341C505.791 203.281 525.95 198.679 540.23 190.243C554.575 181.768 563 169.405 563 151.998H561ZM299.591 229.145C302.239 234.904 303.246 239.453 303.171 243.128C303.097 246.78 301.952 249.625 300.189 252C298.411 254.395 295.984 256.338 293.307 258.135C291.97 259.033 290.587 259.884 289.201 260.737C287.822 261.587 286.437 262.439 285.127 263.325C282.518 265.089 280.111 267.043 278.521 269.514C276.906 272.025 276.173 275.01 276.803 278.733C277.427 282.415 279.378 286.787 283.043 292.147C286.712 297.514 292.139 303.928 299.787 311.701L301.213 310.299C293.611 302.572 288.272 296.251 284.694 291.018C281.11 285.777 279.331 281.682 278.775 278.399C278.226 275.157 278.863 272.679 280.203 270.596C281.569 268.473 283.701 266.703 286.248 264.982C287.516 264.124 288.864 263.294 290.25 262.44C291.63 261.591 293.047 260.719 294.422 259.796C297.168 257.952 299.816 255.858 301.795 253.192C303.79 250.505 305.087 247.262 305.171 243.169C305.254 239.098 304.136 234.243 301.409 228.309L299.591 229.145ZM576 311C576 324.81 567.05 334.74 551.085 341.745C535.102 348.759 512.322 352.716 485.247 354.617C431.119 358.418 360.249 353.981 293.285 349.725C226.392 345.474 163.335 341.397 125.021 345.977C115.433 347.123 107.338 348.816 101.095 351.21C94.8716 353.597 90.3436 356.736 88.1082 360.871C85.8414 365.064 86.053 370.046 88.7856 375.797C91.507 381.525 96.7715 388.125 104.813 395.727L106.187 394.273C98.2189 386.741 93.1588 380.341 90.5921 374.939C88.0368 369.56 87.9971 365.282 89.8676 361.822C91.7695 358.304 95.7676 355.395 101.811 353.078C107.835 350.768 115.746 349.099 125.258 347.962C163.343 343.41 226.167 347.463 293.158 351.721C360.078 355.974 431.097 360.425 485.387 356.612C512.522 354.707 535.583 350.732 551.889 343.577C568.213 336.414 578 325.94 578 311H576ZM438.489 152.151C442.412 126.402 463.895 105.908 494.659 98.9133C525.405 91.9226 565.37 98.4547 605.927 126.819L607.073 125.181C566.13 96.5453 525.595 89.8283 494.216 96.9631C462.855 104.094 440.588 125.099 436.511 151.849L438.489 152.151ZM605.927 126.819C646.357 155.096 673.017 213.02 677.315 271.136C681.613 329.247 663.535 387.157 614.994 415.638L616.006 417.362C665.465 388.343 683.637 329.503 679.31 270.989C674.983 212.48 648.143 153.904 607.073 125.181L605.927 126.819ZM614.994 415.638C566.297 444.21 515.967 441.742 477.745 432.093C458.636 427.269 442.575 420.655 431.292 415.247C425.651 412.543 421.207 410.142 418.176 408.419C416.661 407.557 415.499 406.865 414.717 406.39C414.327 406.152 414.031 405.968 413.834 405.845C413.736 405.783 413.662 405.736 413.613 405.705C413.589 405.69 413.571 405.678 413.559 405.671C413.553 405.667 413.549 405.664 413.546 405.662C413.545 405.661 413.544 405.661 413.543 405.66C413.543 405.66 413.543 405.66 413 406.5C412.457 407.34 412.458 407.34 412.459 407.341C412.46 407.342 412.462 407.343 412.464 407.344C412.467 407.346 412.472 407.35 412.479 407.354C412.493 407.363 412.513 407.375 412.539 407.392C412.591 407.426 412.669 407.475 412.771 407.539C412.976 407.667 413.279 407.856 413.678 408.098C414.475 408.583 415.654 409.286 417.187 410.157C420.254 411.901 424.74 414.324 430.427 417.05C441.8 422.501 457.989 429.168 477.255 434.032C515.783 443.758 566.703 446.29 616.006 417.362L614.994 415.638Z" fill="black"/>
<defs>
<clipPath id="clip0_1_58">
<rect x="105" y="379" width="512" height="32" fill="white"/>
</clipPath>
</defs>
</svg>
